<?xml version="1.0" encoding="iso-8859-1"?>
<!-- Generator: Adobe Illustrator 19.0.0, SVG Export Plug-In . SVG Version: 6.00 Build 0)  -->
<svg version="1.1" id="Capa_1" xmlns="http://www.w3.org/2000/svg" xmlns:xlink="http://www.w3.org/1999/xlink" x="0px" y="0px"
	 viewBox="0 0 479.999 479.999" style="enable-background:new 0 0 479.999 479.999;" xml:space="preserve">
<g>
	<g>
		<path d="M477.655,26.342l-24-24c-3.124-3.123-8.188-3.123-11.312,0l-216,216l-21.72,21.72
			c-72.507,0.503-141.881,29.624-193.024,81.024l-9.256,9.256c-3.123,3.124-3.123,8.188,0,11.312l136,136
			c3.019,3.021,7.88,3.137,11.04,0.264c57.048-51.977,89.861-125.372,90.552-202.544l21.72-21.72l216-216
			C480.779,34.53,480.779,29.466,477.655,26.342z M144.184,460.862l-0.032-0.032l-8.84-8.832l30.344-30.344l-11.312-11.312
			l-30.344,30.344l-12.688-12.688l30.344-30.344l-11.312-11.312l-30.344,30.344l-12.688-12.688l30.344-30.344l-11.312-11.312
			l-30.344,30.344l-12.688-12.688l30.344-30.344l-11.312-11.312l-30.344,30.344l-12.688-12.688l30.344-30.344l-11.312-11.312
			l-30.344,30.344l-8.688-8.688l3.6-3.6c25.107-25.164,55.113-44.905,88.16-58l94.528,94.528
			C191.931,403.608,170.989,434.957,144.184,460.862z M211.624,352.31l-0.032-0.032l-83.872-83.872
			c4.448-1.416,8.928-2.744,13.456-3.92l74.344,74.344C214.335,343.358,213.048,347.854,211.624,352.31z M219.591,320.278
			l-59.84-59.84c14.831-2.75,29.869-4.235,44.952-4.44l19.296,19.304C223.842,290.394,222.367,305.443,219.591,320.278z
			 M231.999,260.686l-12.688-12.688l12.688-12.688l12.688,12.688L231.999,260.686z M255.999,236.686l-12.688-12.688L447.999,19.31
			l12.688,12.688L255.999,236.686z"/>
	</g>
</g>
<g>
</g>
<g>
</g>
<g>
</g>
<g>
</g>
<g>
</g>
<g>
</g>
<g>
</g>
<g>
</g>
<g>
</g>
<g>
</g>
<g>
</g>
<g>
</g>
<g>
</g>
<g>
</g>
<g>
</g>
</svg>
