<?xml version="1.0" encoding="iso-8859-1"?>
<!-- Generator: Adobe Illustrator 19.0.0, SVG Export Plug-In . SVG Version: 6.00 Build 0)  -->
<svg version="1.1" id="Capa_1" xmlns="http://www.w3.org/2000/svg" xmlns:xlink="http://www.w3.org/1999/xlink" x="0px" y="0px"
	 viewBox="0 0 480 480" style="enable-background:new 0 0 480 480;" xml:space="preserve">
<g>
	<g>
		<path d="M472,148c4.418,0,8-3.582,8-8v-40c0-4.418-3.582-8-8-8H152.336c-22.856,0.054-44.34,10.915-57.936,29.288l-59.616,80.88
			C12.113,232.788-0.085,269.901,0,308c0,4.418,3.582,8,8,8h16v72h16v-72h16v72h16v-72h16v72h16v-72h16v72h16v-72h16v72h16v-72h16
			v72h16v-72h16v72h16v-72h16v72h16v-72h16v72h16v-72h16v72h16v-72h16v72h16v-72h16v72h16v-72h16v72h16v-72h16v72h16v-72h16
			c4.418,0,8-3.582,8-8v-56c0-4.418-3.582-8-8-8h-48v-96H472z M148.352,132c-10.332,0.009-20.027,4.998-26.04,13.4l-45.712,64
			c-10.273,14.381-6.942,34.367,7.439,44.639c5.425,3.875,11.926,5.959,18.593,5.961H464v40H16.192
			c1.503-31.913,12.455-62.659,31.464-88.336l59.592-80.88c10.581-14.297,27.301-22.746,45.088-22.784H464v24H148.352z M408,148v96
			h-16v-96H408z M376,148v96H102.632c-8.837,0.008-16.007-7.148-16.015-15.985c-0.003-3.342,1.04-6.601,2.983-9.319l45.712-64
			c3.008-4.209,7.866-6.703,13.04-6.696H376z"/>
	</g>
</g>
<g>
</g>
<g>
</g>
<g>
</g>
<g>
</g>
<g>
</g>
<g>
</g>
<g>
</g>
<g>
</g>
<g>
</g>
<g>
</g>
<g>
</g>
<g>
</g>
<g>
</g>
<g>
</g>
<g>
</g>
</svg>
