<?xml version="1.0" encoding="iso-8859-1"?>
<!-- Generator: Adobe Illustrator 19.0.0, SVG Export Plug-In . SVG Version: 6.00 Build 0)  -->
<svg version="1.1" id="Capa_1" xmlns="http://www.w3.org/2000/svg" xmlns:xlink="http://www.w3.org/1999/xlink" x="0px" y="0px"
	 viewBox="0 0 480.007 480.007" style="enable-background:new 0 0 480.007 480.007;" xml:space="preserve">
<g>
	<g>
		<path d="M473.936,24.243l-32-8h-0.104h-0.096l-72-16c-4.231-0.941-8.442,1.66-9.496,5.864l-48,192
			c-1.073,4.286,1.532,8.63,5.818,9.703c0.068,0.017,0.137,0.033,0.206,0.049l0-0.048L384,222.403v249.6c0,4.418,3.582,8,8,8h40
			c4.418,0,8-3.582,8-8V216.859l39.824-183.16C480.739,29.474,478.132,25.287,473.936,24.243z M373.872,17.507l56.376,12.52
			l-4.12,16.48l-56.376-12.528L373.872,17.507z M365.872,49.499l56.376,12.528l-4.12,16.48l-56.376-12.528L365.872,49.499z
			 M357.872,81.499l56.376,12.528l-4.12,16.48l-56.376-12.528L357.872,81.499z M349.872,113.499l56.376,12.528l-4.12,16.48
			l-56.376-12.528L349.872,113.499z M386.128,206.499l-56.376-12.52l4.12-16.48l56.376,12.528L386.128,206.499z M394.128,174.507
			l-56.376-12.528l4.12-16.48l56.376,12.528L394.128,174.507z M424.176,214.307c-0.115,0.558-0.174,1.126-0.176,1.696v248h-24
			V216.987l45.824-183.28l16.704,4.176L424.176,214.307z"/>
	</g>
</g>
<g>
	<g>
		<rect x="160" y="32.003" width="16" height="16"/>
	</g>
</g>
<g>
	<g>
		<path d="M296.2,215.203L208,171.059V8.003c0-4.418-3.582-8-8-8h-64c-4.418,0-8,3.582-8,8v163.056l-88.2,44.144
			C15.356,227.319-0.078,252.274,0,279.555v192.448c0,0.104,0.056,0.184,0.056,0.288c0.018,0.951,0.204,1.891,0.552,2.776
			c0,0.064,0.08,0.12,0.112,0.184c0.453,1.045,1.153,1.965,2.04,2.68c0.507,0.444,1.069,0.82,1.672,1.12
			c0.246,0.137,0.5,0.26,0.76,0.368c0.893,0.362,1.844,0.56,2.808,0.584h320c0.957-0.018,1.902-0.208,2.792-0.56
			c0.273-0.109,0.54-0.232,0.8-0.368c0.599-0.302,1.159-0.678,1.664-1.12c0.884-0.713,1.581-1.63,2.032-2.672
			c0-0.072,0.096-0.128,0.12-0.2c0.351-0.884,0.538-1.825,0.552-2.776c0-0.104,0.056-0.184,0.056-0.288V279.555
			C336.092,252.27,320.651,227.314,296.2,215.203z M27.312,464.003l24-24h233.376l24,24H27.312z M56,424.003v-136
			c0-13.255,10.745-24,24-24h176c13.255,0,24,10.745,24,24v136H56z M320,452.691l-24-24V288.003c-0.026-22.08-17.92-39.974-40-40H80
			c-22.08,0.026-39.974,17.92-40,40v140.688l-24,24V279.555c-0.073-21.229,11.931-40.652,30.952-50.08l92.624-46.272
			c2.725-1.362,4.441-4.153,4.424-7.2v-160h48v160c-0.001,3.032,1.712,5.805,4.424,7.16l92.624,46.312
			c19.021,9.428,31.025,28.851,30.952,50.08V452.691z"/>
	</g>
</g>
<g>
</g>
<g>
</g>
<g>
</g>
<g>
</g>
<g>
</g>
<g>
</g>
<g>
</g>
<g>
</g>
<g>
</g>
<g>
</g>
<g>
</g>
<g>
</g>
<g>
</g>
<g>
</g>
<g>
</g>
</svg>
