<?xml version="1.0" encoding="iso-8859-1"?>
<!-- Generator: Adobe Illustrator 19.0.0, SVG Export Plug-In . SVG Version: 6.00 Build 0)  -->
<svg version="1.1" id="Capa_1" xmlns="http://www.w3.org/2000/svg" xmlns:xlink="http://www.w3.org/1999/xlink" x="0px" y="0px"
	 viewBox="0 0 512 512" style="enable-background:new 0 0 512 512;" xml:space="preserve">
<g>
	<g>
		<path d="M478,247.188v-5.157c0-52.256-18.585-103.049-52.33-143.022c-33.339-39.49-79.502-66.276-129.987-75.425
			c-5.439-0.984-10.639,2.623-11.623,8.057c-0.984,5.435,2.622,10.638,8.057,11.623C388.236,60.682,458,144.275,458,242.031v3.008
			h-20v-3.008c0-100.355-81.645-182-182-182s-182,81.645-182,182v3H54v-3c0-99.025,70.821-182.804,168.398-199.206
			c5.446-0.916,9.119-6.073,8.203-11.52c-0.916-5.446-6.063-9.124-11.52-8.204c-51.122,8.594-97.958,35.187-131.88,74.881
			C52.895,138.128,34,189.286,34,242.031v5.149c-19.671,6.092-34,24.453-34,46.099v67.504c0,26.604,21.644,48.248,48.248,48.248
			h28.073c5.261,8.686,14.803,14.504,25.678,14.504c16.542,0,30-13.458,30-30v-133c0-16.542-13.458-30-30-30
			c-2.644,0-5.207,0.347-7.65,0.992C99.782,147.078,170.202,80.031,256,80.031s156.218,67.047,161.65,151.496
			c-2.444-0.645-5.007-0.992-7.65-0.992c-16.542,0-30,13.458-30,30V285.5c0,5.522,4.478,10,10,10c5.522,0,10-4.478,10-10v-24.965
			c0-5.514,4.486-10,10-10c5.514,0,10,4.486,10,10v129.496v3.504c0,5.514-4.486,10-10,10c-5.514,0-10-4.486-10-10V370.5
			c0-5.522-4.478-10-10-10c-5.522,0-10,4.478-10,10v23.035c0,16.542,13.458,30,30,30c3.506,0,6.87-0.61,10-1.72v6.518
			c0,10.827-8.809,19.636-19.636,19.636h-91.74c-4.28-13.883-17.228-24-32.497-24h-40c-18.748,0-34,15.252-34,34s15.252,34,34,34h40
			c15.269,0,28.217-10.117,32.497-24h91.74c21.855,0,39.636-17.78,39.636-39.636v-19.294h23.752
			c26.604,0,48.248-21.644,48.248-48.248v-67.504C512,271.641,497.671,253.28,478,247.188z M72,389.031H48.248
			C32.672,389.031,20,376.359,20,360.783v-67.504c0-15.576,12.672-28.248,28.248-28.248H72V389.031z M102,250.535
			c5.514,0,10,4.486,10,10v133c0,5.514-4.486,10-10,10s-10-4.486-10-10v-133C92,255.021,96.486,250.535,102,250.535z
			 M276.127,471.969h-40c-7.72,0-14-6.28-14-14c0-7.72,6.28-14,14-14h40c7.72,0,14,6.28,14,14
			C290.127,465.689,283.847,471.969,276.127,471.969z M492,360.791c0,15.576-12.672,28.248-28.248,28.248H440v-124h23.752
			c15.576,0,28.248,12.672,28.248,28.248V360.791z"/>
	</g>
</g>
<g>
	<g>
		<path d="M256.869,20.032L256,20.031c-5.522,0-10,4.477-10,10s4.478,10,10,10l0.799,0.001c0.012,0,0.023,0,0.036,0
			c5.506,0,9.979-4.454,9.999-9.965C266.854,24.544,262.392,20.051,256.869,20.032z"/>
	</g>
</g>
<g>
	<g>
		<path d="M397.069,319.97c-1.859-1.86-4.439-2.93-7.069-2.93s-5.21,1.069-7.07,2.93c-1.86,1.861-2.93,4.44-2.93,7.07
			s1.069,5.21,2.93,7.069c1.86,1.861,4.44,2.931,7.07,2.931s5.21-1.07,7.069-2.931c1.86-1.859,2.931-4.439,2.931-7.069
			S398.93,321.83,397.069,319.97z"/>
	</g>
</g>
<g>
	<g>
		<path d="M314.158,196.067H197.842c-25.277,0-45.842,20.565-45.842,45.842v58.501c0,25.277,20.564,45.843,45.842,45.843h27.69
			l22.585,28.184c1.881,2.347,4.719,3.723,7.727,3.746c0.025,0,0.052,0,0.077,0c2.979,0,5.805-1.329,7.705-3.626l23.413-28.304
			h27.119c25.277,0,45.842-20.565,45.842-45.843v-58.501C360,216.632,339.436,196.067,314.158,196.067z M340,300.41
			c0,14.25-11.593,25.843-25.842,25.843h-31.825c-2.98,0-5.806,1.329-7.705,3.626l-18.584,22.466l-17.907-22.346
			c-1.898-2.368-4.769-3.746-7.804-3.746h-32.491c-14.249,0-25.842-11.593-25.842-25.843v-58.501
			c0-14.25,11.593-25.842,25.842-25.842h116.316c14.249,0,25.842,11.593,25.842,25.842V300.41z"/>
	</g>
</g>
<g>
	<g>
		<path d="M219.2,269.09c-1.87-1.861-4.44-2.93-7.07-2.93s-5.21,1.069-7.07,2.93c-1.87,1.86-2.93,4.44-2.93,7.07
			s1.06,5.21,2.93,7.069c1.86,1.86,4.44,2.931,7.07,2.931s5.2-1.07,7.07-2.931c1.859-1.859,2.93-4.439,2.93-7.069
			S221.06,270.95,219.2,269.09z"/>
	</g>
</g>
<g>
	<g>
		<path d="M263.2,269.09c-1.86-1.86-4.44-2.93-7.07-2.93c-2.64,0-5.21,1.069-7.07,2.93c-1.87,1.86-2.93,4.44-2.93,7.07
			s1.06,5.21,2.93,7.069c1.86,1.861,4.43,2.931,7.07,2.931c2.63,0,5.21-1.07,7.07-2.931c1.859-1.859,2.93-4.439,2.93-7.069
			S265.06,270.95,263.2,269.09z"/>
	</g>
</g>
<g>
	<g>
		<path d="M307.2,269.09c-1.87-1.86-4.44-2.93-7.07-2.93c-2.64,0-5.21,1.069-7.07,2.93c-1.87,1.86-2.93,4.44-2.93,7.07
			c0,2.64,1.06,5.21,2.93,7.069c1.86,1.861,4.43,2.931,7.07,2.931c2.63,0,5.2-1.07,7.07-2.931c1.859-1.859,2.93-4.439,2.93-7.069
			S309.06,270.95,307.2,269.09z"/>
	</g>
</g>
<g>
</g>
<g>
</g>
<g>
</g>
<g>
</g>
<g>
</g>
<g>
</g>
<g>
</g>
<g>
</g>
<g>
</g>
<g>
</g>
<g>
</g>
<g>
</g>
<g>
</g>
<g>
</g>
<g>
</g>
</svg>
