<?xml version="1.0" encoding="iso-8859-1"?>
<!-- Generator: Adobe Illustrator 19.0.0, SVG Export Plug-In . SVG Version: 6.00 Build 0)  -->
<svg version="1.1" id="Capa_1" xmlns="http://www.w3.org/2000/svg" xmlns:xlink="http://www.w3.org/1999/xlink" x="0px" y="0px"
	 viewBox="0 0 480 480" style="enable-background:new 0 0 480 480;" xml:space="preserve">
<g>
	<g>
		<path d="M190.072,74.723c-2.452-2.648-6.34-3.396-9.6-1.848l-0.048-0.112c-27.969,13.919-50.98,36.103-65.912,63.544
			c-20.148,1.764-38.004,13.685-47.36,31.616H48v-16H32v16.8c-18.611,3.827-31.976,20.199-32,39.2v160
			c0.026,22.08,17.92,39.974,40,40h168c4.418,0,8-3.582,8-8v-24h16c4.418,0,8-3.582,8-8v-163.2
			C239.622,156.779,221.885,110.595,190.072,74.723z M64,359.923H48v-144h16V359.923z M64,199.923H40c-4.418,0-8,3.582-8,8v160
			c0,4.418,3.582,8,8,8h24v16H40c-13.255,0-24-10.745-24-24v-160c0-13.255,10.745-24,24-24h24V199.923z M96,209.371v182.552H80
			V177.811l0.84-1.688c5.199-10.422,14.36-18.324,25.432-21.936C99.481,171.793,95.999,190.501,96,209.371z M200,391.923h-88
			V209.371c-0.096-36.134,14.2-70.819,39.728-96.392c-15.457,28.116-23.615,59.66-23.728,91.744v163.2c0,4.418,3.582,8,8,8h64
			V391.923z M224,359.923h-80v-155.2c0.282-40.844,14.381-80.389,40-112.2c25.619,31.811,39.718,71.356,40,112.2V359.923z"/>
	</g>
</g>
<g>
	<g>
		<rect x="176" y="143.923" width="16" height="16"/>
	</g>
</g>
<g>
	<g>
		<rect x="160" y="175.923" width="16" height="16"/>
	</g>
</g>
<g>
	<g>
		<rect x="192" y="175.923" width="16" height="16"/>
	</g>
</g>
<g>
	<g>
		<rect x="160" y="207.923" width="16" height="16"/>
	</g>
</g>
<g>
	<g>
		<rect x="192" y="207.923" width="16" height="16"/>
	</g>
</g>
<g>
	<g>
		<rect x="160" y="239.923" width="16" height="16"/>
	</g>
</g>
<g>
	<g>
		<rect x="192" y="239.923" width="16" height="16"/>
	</g>
</g>
<g>
	<g>
		<rect x="160" y="271.923" width="16" height="16"/>
	</g>
</g>
<g>
	<g>
		<rect x="192" y="271.923" width="16" height="16"/>
	</g>
</g>
<g>
	<g>
		<rect x="160" y="303.923" width="16" height="16"/>
	</g>
</g>
<g>
	<g>
		<rect x="192" y="303.923" width="16" height="16"/>
	</g>
</g>
<g>
	<g>
		<path d="M480,151.923c0-8.837-7.163-16-16-16H280c-13.255,0-24,10.745-24,24v32c0.021,5.923,2.245,11.627,6.24,16
			c-3.995,4.373-6.219,10.077-6.24,16v32c0.021,5.923,2.245,11.627,6.24,16c-3.995,4.373-6.219,10.077-6.24,16v32
			c0.021,5.923,2.245,11.627,6.24,16c-3.995,4.373-6.219,10.077-6.24,16v32c0,13.255,10.745,24,24,24h184c8.837,0,16-7.163,16-16
			v-16c0.004-2.81-0.739-5.571-2.152-8c1.413-2.429,2.156-5.19,2.152-8v-16c-0.016-2.817-0.784-5.579-2.224-8
			c1.44-2.421,2.208-5.183,2.224-8v-16c0.004-2.81-0.739-5.571-2.152-8c1.413-2.429,2.156-5.19,2.152-8v-16
			c-0.016-2.817-0.784-5.579-2.224-8c1.44-2.421,2.208-5.183,2.224-8v-16c0.004-2.81-0.739-5.571-2.152-8
			c1.413-2.429,2.156-5.19,2.152-8v-16c-0.016-2.817-0.784-5.579-2.224-8c1.44-2.421,2.208-5.183,2.224-8v-16
			c0.004-2.81-0.739-5.571-2.152-8c1.413-2.429,2.156-5.19,2.152-8V151.923z M464,359.923H296c-4.418,0-8,3.582-8,8s3.582,8,8,8h168
			v16H280c-4.418,0-8-3.582-8-8v-32c0-4.418,3.582-8,8-8h184V359.923z M464,295.923H296c-4.418,0-8,3.582-8,8s3.582,8,8,8h168v16
			H280c-4.418,0-8-3.582-8-8v-32c0-4.418,3.582-8,8-8h184V295.923z M464,231.923H296c-4.418,0-8,3.582-8,8s3.582,8,8,8h168v16H280
			c-4.418,0-8-3.582-8-8v-32c0-4.418,3.582-8,8-8h184V231.923z M464,167.923H296c-4.418,0-8,3.582-8,8s3.582,8,8,8h168v16H280
			c-4.418,0-8-3.582-8-8v-32c0-4.418,3.582-8,8-8h184V167.923z"/>
	</g>
</g>
<g>
</g>
<g>
</g>
<g>
</g>
<g>
</g>
<g>
</g>
<g>
</g>
<g>
</g>
<g>
</g>
<g>
</g>
<g>
</g>
<g>
</g>
<g>
</g>
<g>
</g>
<g>
</g>
<g>
</g>
</svg>
