<?xml version="1.0" encoding="iso-8859-1"?>
<!-- Generator: Adobe Illustrator 19.0.0, SVG Export Plug-In . SVG Version: 6.00 Build 0)  -->
<svg version="1.1" id="Capa_1" xmlns="http://www.w3.org/2000/svg" xmlns:xlink="http://www.w3.org/1999/xlink" x="0px" y="0px"
	 viewBox="0 0 480.001 480.001" style="enable-background:new 0 0 480.001 480.001;" xml:space="preserve">
<g>
	<g>
		<path d="M456.001,181.703c-13.255,0-24,10.745-24,24h-84.528l-31.544-32.456V85.991c0.012-16.913-13.689-30.634-30.602-30.646
			s-30.634,13.689-30.646,30.602c0,0.014,0,0.029,0,0.043v25.936l-90.032-90.016c-11.081-10.57-28.511-10.57-39.592,0
			c-5.268,5.237-8.224,12.363-8.208,19.792v0.288C101.386,41.837,88.725,54.247,88.57,69.71c-0.001,0.094-0.001,0.188-0.001,0.281
			v0.296c-7.516-0.054-14.743,2.892-20.08,8.184c-5.333,5.317-8.288,12.566-8.192,20.096c-7.502,0.042-14.699,2.973-20.096,8.184
			c-10.915,10.931-10.915,28.637,0,39.568l58.488,59.384H28.001c-15.464,0.011-27.991,12.556-27.98,28.02
			c0.005,7.518,3.034,14.718,8.404,19.98c-11.046,10.785-11.257,28.482-0.473,39.527c0.156,0.159,0.313,0.317,0.473,0.473
			c-11.046,10.785-11.257,28.482-0.473,39.527c0.156,0.159,0.313,0.317,0.473,0.473c-11.046,10.823-11.227,28.55-0.404,39.596
			c5.262,5.37,12.462,8.399,19.98,8.404h127.312l-18.344,18.344c-11.96,11.96-11.96,31.352,0,43.312
			c11.96,11.96,31.352,11.96,43.312,0l61.656-61.656h30.064v-0.144l42.784,43.416l-0.208,0.208
			c-9.297,9.447-9.175,24.643,0.272,33.94c9.339,9.19,24.323,9.192,33.664,0.004l83.488-83.488v6.064c0,13.255,10.745,24,24,24
			s24-10.745,24-24v-176C480.001,192.448,469.256,181.703,456.001,181.703z M432.001,221.703v70.984l-68.984-70.984H432.001z
			 M238.625,365.703c-2.122,0-4.156,0.844-5.656,2.344l-64,64c-5.836,5.59-15.098,5.391-20.688-0.445
			c-5.421-5.659-5.421-14.584,0-20.243l32-32c3.124-3.125,3.123-8.19-0.002-11.314c-1.5-1.499-3.534-2.342-5.654-2.342H28.001
			c-6.627,0-12-5.373-12-12c0-6.627,5.373-12,12-12h92v-16h-92c-6.627,0-12-5.373-12-12c0-6.627,5.373-12,12-12h92v-16h-92
			c-6.627,0-12-5.373-12-12c0-6.627,5.373-12,12-12h92v-16h-92c-6.627,0-12-5.373-12-12c0-6.627,5.373-12,12-12h86.456l141.912,144
			H238.625z M51.513,135.039c-4.686-4.688-4.684-12.286,0.004-16.972c4.688-4.686,12.286-4.684,16.972,0.004l65.048,65.056
			l11.312-11.312l-65.048-65.056c-4.686-4.694-4.678-12.298,0.016-16.984c4.694-4.686,12.298-4.678,16.984,0.016l65.04,65.04
			l11.312-11.312l-65.056-65.016c-4.685-4.686-4.685-12.282,0-16.968c4.747-4.536,12.221-4.536,16.968,0l65.048,65.04l11.312-11.312
			l-65.048-65.04c-4.685-4.686-4.685-12.282,0-16.968c4.748-4.532,12.22-4.532,16.968,0l103.68,103.648
			c3.125,3.124,8.19,3.123,11.314-0.002c1.499-1.5,2.342-3.534,2.342-5.654V85.991c-0.008-8.077,6.534-14.63,14.61-14.638
			c8.077-0.008,14.63,6.534,14.638,14.61c0,0.009,0,0.018,0,0.028v90.504c-0.006,2.091,0.807,4.101,2.264,5.6l125.928,129.6
			L326.097,413.703L51.513,135.039z M337.201,447.839c-3.167,3.017-8.145,3.017-11.312,0c-3.126-3.122-3.129-8.188-0.006-11.314
			c0.002-0.002,0.004-0.004,0.006-0.006l124.456-124.472c3.124-3.123,8.188-3.123,11.312,0c3.123,3.124,3.123,8.188,0,11.312
			L337.201,447.839z M464.001,381.703c0,4.418-3.582,8-8,8s-8-3.582-8-8v-22.056l16-16V381.703z M464.001,295.167
			c-5.176-1.83-10.824-1.83-16,0v-89.464c0-4.418,3.582-8,8-8s8,3.582,8,8V295.167z"/>
	</g>
</g>
<g>
</g>
<g>
</g>
<g>
</g>
<g>
</g>
<g>
</g>
<g>
</g>
<g>
</g>
<g>
</g>
<g>
</g>
<g>
</g>
<g>
</g>
<g>
</g>
<g>
</g>
<g>
</g>
<g>
</g>
</svg>
