<?xml version="1.0" encoding="iso-8859-1"?>
<!-- Generator: Adobe Illustrator 19.0.0, SVG Export Plug-In . SVG Version: 6.00 Build 0)  -->
<svg version="1.1" id="Capa_1" xmlns="http://www.w3.org/2000/svg" xmlns:xlink="http://www.w3.org/1999/xlink" x="0px" y="0px"
	 viewBox="0 0 480 480" style="enable-background:new 0 0 480 480;" xml:space="preserve">
<g>
	<g>
		<path d="M479.968,175.312C475.248,120.968,430.56,80,376.024,80c-0.008,0-0.016,0-0.024,0h-6.272
			c-23.448,0-46.304,4.576-67.936,13.592c-39.264,16.352-84.32,16.36-123.576,0C156.576,84.576,133.712,80,110.272,80H104
			c-0.008,0-0.016,0-0.024,0C49.44,80,4.752,120.976,0,176l0.032,128.696C4.752,359.032,49.432,400,103.968,400
			c0.008,0,0.024,0,0.032,0h12.632c19.024,0,37.816-3.048,55.872-9.072l16.696-5.592c32.768-10.92,68.84-10.912,101.592-0.008
			l16.72,5.6c18.032,6.024,36.832,9.072,55.856,9.072H376c0.008,0,0.016,0,0.032,0c54.528,0,99.216-40.968,103.968-96V176
			C480,175.768,479.992,175.536,479.968,175.312z M376.032,384c-0.008,0-0.024,0-0.032,0h-12.632
			c-17.296,0-34.392-2.768-50.792-8.24l-16.72-5.608c-18.016-5.992-36.928-8.992-55.856-8.992c-18.92,0-37.856,3-55.872,9
			l-16.696,5.6c-16.408,5.464-33.496,8.24-50.8,8.24h-12.64c-0.008,0-0.016,0-0.024,0c-46.168,0-84-34.688-87.968-80l-0.032-127.312
			C19.968,130.68,57.8,96,103.976,96c0.008,0,0.024,0,0.024,0h6.272c21.32,0,42.104,4.16,61.784,12.36
			c43.192,18,92.712,18,135.888,0c19.672-8.2,40.464-12.36,61.784-12.36H376c0.008,0,0.016,0,0.024,0
			c46.064,0,83.816,34.52,87.976,80.352l0.032,126.952C460.032,349.312,422.2,384,376.032,384z"/>
	</g>
</g>
<g>
	<g>
		<path d="M376,80h-6.272c-23.448,0-46.304,4.576-67.936,13.592c-39.264,16.352-84.32,16.36-123.576,0
			C156.576,84.576,133.712,80,110.272,80H104C46.656,80,0,126.656,0,184s46.656,104,104,104h12.632
			c19.024,0,37.816-3.048,55.872-9.072l16.696-5.592c32.768-10.912,68.84-10.904,101.592-0.008l16.72,5.6
			c18.032,6.024,36.832,9.072,55.856,9.072H376c57.344,0,104-46.656,104-104S433.344,80,376,80z M376,272h-12.632
			c-17.296,0-34.392-2.768-50.792-8.24l-16.72-5.608c-18.016-5.992-36.928-8.992-55.856-8.992c-18.92,0-37.856,3-55.872,9
			l-16.696,5.6c-16.408,5.464-33.496,8.24-50.8,8.24H104c-48.52,0-88-39.48-88-88s39.48-88,88-88h6.272
			c21.32,0,42.104,4.16,61.784,12.36c43.192,18,92.712,18,135.888,0c19.672-8.2,40.464-12.36,61.784-12.36H376
			c48.52,0,88,39.48,88,88S424.52,272,376,272z"/>
	</g>
</g>
<g>
	<g>
		<rect x="88" y="144" width="16" height="16"/>
	</g>
</g>
<g>
	<g>
		<rect x="128" y="176" width="16" height="16"/>
	</g>
</g>
<g>
	<g>
		<rect x="200" y="160" width="16" height="16"/>
	</g>
</g>
<g>
	<g>
		<rect x="304" y="216" width="16" height="16"/>
	</g>
</g>
<g>
	<g>
		<rect x="384" y="136" width="16" height="16"/>
	</g>
</g>
<g>
	<g>
		<rect x="408" y="200" width="16" height="16"/>
	</g>
</g>
<g>
	<g>
		<rect x="56" y="304" width="16" height="16"/>
	</g>
</g>
<g>
	<g>
		<rect x="128" y="336" width="16" height="16"/>
	</g>
</g>
<g>
	<g>
		<rect x="184" y="288" width="16" height="16"/>
	</g>
</g>
<g>
	<g>
		<rect x="248" y="320" width="16" height="16"/>
	</g>
</g>
<g>
	<g>
		<rect x="360" y="336" width="16" height="16"/>
	</g>
</g>
<g>
	<g>
		<rect x="424" y="296" width="16" height="16"/>
	</g>
</g>
<g>
	<g>
		<rect x="312" y="136" width="16" height="16"/>
	</g>
</g>
<g>
	<g>
		<rect x="64" y="224" width="16" height="16"/>
	</g>
</g>
<g>
</g>
<g>
</g>
<g>
</g>
<g>
</g>
<g>
</g>
<g>
</g>
<g>
</g>
<g>
</g>
<g>
</g>
<g>
</g>
<g>
</g>
<g>
</g>
<g>
</g>
<g>
</g>
<g>
</g>
</svg>
