<?xml version="1.0" standalone="no"?>
<!DOCTYPE svg PUBLIC "-//W3C//DTD SVG 20010904//EN"
 "http://www.w3.org/TR/2001/REC-SVG-20010904/DTD/svg10.dtd">
<svg version="1.0" xmlns="http://www.w3.org/2000/svg"
 width="700.000000pt" height="700.000000pt" viewBox="0 0 700.000000 700.000000"
 preserveAspectRatio="xMidYMid meet">
<metadata>
Created by potrace 1.11, written by Peter Selinger 2001-2013
</metadata>
<g transform="translate(0.000000,700.000000) scale(0.100000,-0.100000)"
fill="#000000" stroke="none">
<path d="M2050 6792 c-129 -19 -253 -111 -307 -228 -25 -55 -33 -86 -42 -171
0 -6 -10 -10 -21 -8 -30 6 -127 -22 -182 -52 -114 -62 -204 -211 -208 -344 0
-11 -10 -16 -35 -17 -81 -3 -177 -45 -244 -106 -71 -65 -131 -190 -131 -272 0
-31 -1 -31 -60 -38 -76 -9 -182 -61 -237 -118 -118 -123 -148 -309 -74 -460
33 -67 88 -125 667 -710 140 -141 254 -259 254 -262 0 -3 -243 -6 -539 -6
-510 0 -542 -1 -603 -20 -273 -84 -372 -402 -199 -640 31 -43 31 -44 12 -64
-130 -143 -130 -395 -1 -534 l21 -23 -29 -37 c-56 -70 -79 -130 -88 -223 -10
-100 27 -221 89 -293 l26 -30 -36 -48 c-56 -77 -83 -167 -79 -266 3 -71 8 -93
39 -155 57 -114 164 -200 282 -225 22 -4 466 -8 987 -8 522 1 948 0 948 -2 0
-1 -69 -73 -154 -158 -197 -199 -241 -276 -236 -419 1 -33 2 -67 2 -75 0 -8 6
-34 14 -58 60 -183 219 -308 405 -316 87 -4 195 23 257 65 26 17 259 242 517
498 l470 467 217 -1 218 -2 180 -184 c100 -101 239 -243 311 -315 l130 -130
-22 -25 c-36 -41 -69 -116 -77 -177 -18 -134 40 -261 155 -341 101 -69 254
-73 364 -9 24 14 323 305 667 648 l622 623 0 -72 c0 -87 -2 -76 21 -135 30
-74 73 -130 131 -168 69 -46 115 -60 198 -61 134 -2 255 75 318 202 l27 56 0
1370 0 1370 -33 67 c-38 77 -92 130 -171 167 -48 22 -69 26 -146 26 -83 0 -95
-3 -153 -34 -103 -56 -171 -151 -187 -263 l-7 -48 -615 0 -615 0 -75 78 c-42
42 -145 148 -231 236 l-155 158 0 654 c0 359 -4 676 -9 703 -37 204 -215 354
-424 360 -211 6 -386 -124 -445 -329 -8 -29 -13 -122 -15 -265 -1 -121 -3
-220 -3 -221 -1 0 -304 302 -674 671 -687 687 -701 699 -809 734 -38 12 -135
20 -178 13z m145 -249 c16 -9 370 -356 785 -771 415 -415 769 -765 786 -778
36 -28 73 -30 119 -8 60 28 63 46 63 445 0 334 1 359 20 400 37 84 111 129
203 125 83 -4 143 -45 185 -126 16 -33 18 -83 18 -735 1 -793 -8 -709 89 -809
28 -30 176 -181 327 -336 151 -155 306 -314 344 -354 38 -39 195 -201 350
-360 154 -159 355 -366 446 -459 91 -94 190 -196 220 -227 30 -31 63 -65 73
-77 17 -20 7 -31 -725 -763 l-743 -742 -315 319 c-173 176 -547 555 -830 842
-283 287 -582 591 -664 674 -82 84 -386 393 -676 687 -291 294 -592 600 -670
680 -78 80 -301 305 -495 501 -193 196 -363 372 -376 390 -33 47 -34 140 -1
186 53 75 145 103 217 65 23 -11 239 -220 519 -500 l481 -481 40 38 c22 21 59
58 82 82 l43 45 -475 474 c-262 261 -485 489 -495 506 -69 109 4 251 134 262
37 3 63 -1 87 -13 19 -10 249 -232 511 -494 262 -262 482 -476 488 -476 11 0
160 144 160 154 0 3 -217 222 -481 486 -264 263 -486 491 -494 505 -44 86 -5
199 82 236 39 17 101 18 140 3 15 -5 247 -229 515 -497 l488 -486 37 36 c21
20 57 55 81 78 24 22 42 45 40 50 -2 6 -219 227 -484 492 -301 303 -486 495
-494 516 -19 48 -8 124 24 166 52 69 143 89 221 49z m4525 -2451 c14 -10 30
-33 36 -51 7 -21 10 -247 10 -684 l-1 -652 -25 2 c-35 4 -150 4 -180 1 l-25
-3 -1 659 c0 730 -2 704 64 738 40 19 87 16 122 -10z m-4774 -606 c152 -154
502 -510 778 -789 760 -770 1005 -1021 1001 -1025 -2 -2 -61 -4 -132 -4 -70
-1 -139 -5 -153 -10 -14 -5 -248 -231 -520 -502 -458 -456 -499 -494 -543
-506 -138 -37 -271 61 -271 199 0 33 8 71 18 94 11 21 120 139 260 279 132
132 249 253 258 267 29 42 21 111 -16 146 -34 32 -62 33 -1163 33 -1194 0
-1127 -3 -1180 54 -88 94 -47 251 74 285 25 7 262 11 703 11 366 0 671 1 678
1 9 1 12 31 12 116 l0 115 -687 0 c-679 0 -687 0 -731 21 -62 30 -97 87 -95
154 2 82 33 130 106 160 31 13 128 15 722 15 l685 0 0 115 c0 85 -3 115 -12
116 -7 1 -319 2 -693 3 -468 2 -688 6 -706 13 -14 6 -39 25 -55 42 -91 96 -49
249 77 285 33 9 211 12 717 11 l672 -1 0 117 0 116 -687 0 c-498 1 -696 4
-718 13 -113 43 -146 186 -64 279 50 58 52 58 751 59 l637 0 277 -282z m4354
-235 l-1 -516 -182 186 c-100 103 -299 307 -442 454 -143 147 -286 294 -317
327 -32 32 -58 60 -58 62 0 2 225 3 500 3 l500 0 0 -516z m440 -813 c26 -32
32 -74 16 -111 -21 -49 -1851 -1875 -1890 -1885 -87 -24 -164 56 -141 145 4
18 320 341 934 954 726 726 935 930 962 937 41 11 91 -6 119 -40z m26 -746 c2
-306 -1 -323 -59 -357 -37 -22 -78 -21 -117 1 -51 30 -54 45 -56 239 l-1 180
111 112 c61 61 113 109 116 107 3 -3 6 -130 6 -282z"/>
</g>
</svg>
